<svg width="21" height="20" viewBox="0 0 21 20" xmlns="http://www.w3.org/2000/svg"><title>Untitled</title><g fill="none" fill-rule="evenodd"><path d="M.8 9.62a10 10 0 1 0 20 0c0 1.22-1.45 2.46-3.78 3.23a20.54 20.54 0 0 1-6.21.85 20.24 20.24 0 0 1-6.33-.86 8.05 8.05 0 0 1-2.61-1.4 2.53 2.53 0 0 1-1-1.83c0-1.18 1.29-2.33 3.46-3.09a20.51 20.51 0 0 1 6.52-1 20.45 20.45 0 0 1 6.43.94 8.11 8.11 0 0 1 2.52 1.33 2.43 2.43 0 0 1 1 1.76" fill="#6D7171" fill-rule="nonzero"/><path d="M19.76 7.82a8.11 8.11 0 0 0-2.52-1.33 20.45 20.45 0 0 0-6.43-.94 20.51 20.51 0 0 0-6.52 1C2.12 7.31.83 8.46.83 9.64a2.53 2.53 0 0 0 1 1.83 8.05 8.05 0 0 0 2.61 1.4c2.051.62 4.188.91 6.33.86a20.54 20.54 0 0 0 6.23-.9c2.33-.77 3.77-2 3.78-3.23a2.43 2.43 0 0 0-1.02-1.78zm-3 4.21a19.68 19.68 0 0 1-5.94.81A19.4 19.4 0 0 1 4.74 12a7.21 7.21 0 0 1-2.33-1.24 1.77 1.77 0 0 1-.75-1.19c0-.88 1.45-1.78 2.89-2.28a19.93 19.93 0 0 1 6.24-.91 19.58 19.58 0 0 1 6.16.9 7.27 7.27 0 0 1 2.25 1.18c.386.257.647.663.72 1.12.01.67-.99 1.71-3.18 2.42l.02.03z" fill="#4DC8ED" fill-rule="nonzero"/><path d="M19.21 8.47A7.27 7.27 0 0 0 17 7.29a19.58 19.58 0 0 0-6.16-.9 19.93 19.93 0 0 0-6.24.91c-1.44.5-2.89 1.4-2.89 2.28.075.483.346.914.75 1.19A7.21 7.21 0 0 0 4.74 12a19.4 19.4 0 0 0 6.06.81 19.68 19.68 0 0 0 5.94-.81c2.19-.73 3.19-1.77 3.19-2.43a1.66 1.66 0 0 0-.72-1.1z" fill="#464949" fill-rule="nonzero"/><path d="M7.28 11.65c-.2-.34-.37-.69-.55-1-.25.6-.48 1.19-.66 1.76a18.26 18.26 0 0 0 1.84.29c-.21-.37-.43-.7-.63-1.05zM5.85 13.2c-.05.22-.12.45-.16.66-.28 1.5-.23 3.21.53 3.65.57.33 2 0 3.64-1.45.12-.11.25-.25.37-.37a20.69 20.69 0 0 1-1.7-2.11 20.19 20.19 0 0 1-2.68-.38zM5.25 7.09l-.69.22c-1.44.5-2.89 1.4-2.89 2.28.075.483.346.914.75 1.19A7.21 7.21 0 0 0 4.74 12l.5.14a20.72 20.72 0 0 1 1-2.54 20.6 20.6 0 0 1-.99-2.51zM14.32 11.64c-.2.35-.4.68-.61 1a18.22 18.22 0 0 0 1.86-.31 18.22 18.22 0 0 0-.68-1.75c-.18.36-.36.71-.57 1.06zM11.43 15.7l.5.46c1.16 1 2.66 1.8 3.43 1.36.57-.33 1-1.69.56-3.87 0-.15-.09-.33-.13-.48a20.14 20.14 0 0 1-2.68.4 20 20 0 0 1-1.68 2.13zM16.4 12.11l.34-.09c2.19-.73 3.19-1.77 3.19-2.43a1.66 1.66 0 0 0-.72-1.12A7.27 7.27 0 0 0 17 7.29c-.19-.06-.4-.11-.6-.17a20.35 20.35 0 0 1-1 2.47c.39.817.724 1.658 1 2.52zM10.8 13.68H9.63c.39.52.8 1 1.21 1.45.412-.476.8-.974 1.16-1.49-.4.02-.79.04-1.2.04zM10.2 3.55l-.29-.29a7.65 7.65 0 0 0-2.28-1.47 1.76 1.76 0 0 0-1.42-.07A1.66 1.66 0 0 0 5.6 2.9a7.27 7.27 0 0 0 .11 2.54c0 .2.1.41.16.62a20.74 20.74 0 0 1 2.65-.4 20.6 20.6 0 0 1 1.68-2.11zM9 6.46c-.34.49-.66 1-1 1.54-.34.54-.59 1.07-.84 1.61.26.54.54 1.07.85 1.61.31.53.64 1.05 1 1.55.58 0 1.18.06 1.81.06.63 0 1.24 0 1.83-.07.32-.487.653-1 1-1.54.31-.54.59-1.08.85-1.62-.26-.52-.54-1.05-.86-1.6-.32-.55-.63-1-1-1.53-.59 0-1.2-.07-1.82-.07-.62 0-1.24.02-1.82.06zm3.6 3.13a1.78 1.78 0 1 1-1.78-1.78 1.78 1.78 0 0 1 1.76 1.78h.02zM14.32 7.57c.2.35.38.7.56 1 .25-.59.48-1.17.65-1.72-.57-.13-1.19-.23-1.83-.31.21.37.42.69.62 1.03zM10.8 5.54h1.18a18.46 18.46 0 0 0-1.17-1.43c-.4.43-.79.92-1.18 1.43.37.02.77 0 1.17 0zM15.75 6.07c0-.13.08-.27.1-.4A7.65 7.65 0 0 0 16 3a1.76 1.76 0 0 0-.65-1.27 1.66 1.66 0 0 0-1.35.02 7.27 7.27 0 0 0-2.15 1.36c-.15.13-.3.29-.45.44a20.37 20.37 0 0 1 1.67 2.1c.902.08 1.797.221 2.68.42zM7.27 7.58c.2-.35.41-.67.63-1-.64.08-1.25.18-1.82.31.17.56.4 1.14.64 1.73.18-.35.36-.7.55-1.04z"/><circle fill="#4DC8ED" fill-rule="nonzero" cx="10.8" cy="9.59" r="1.78"/><path d="M8 8c.31-.53.64-1 1-1.54l-1.08.11c-.21.33-.43.66-.63 1-.2.34-.37.69-.55 1 .14.33.28.66.44 1 .25-.5.53-1.04.82-1.57zM9.63 5.58c.39-.51.78-1 1.18-1.43-.2-.22-.4-.41-.61-.6a20.6 20.6 0 0 0-1.68 2.1l1.11-.07zM13.59 11.22c-.313.547-.647 1.06-1 1.54.37 0 .73-.06 1.08-.11.21-.33.41-.66.61-1 .2-.34.38-.71.57-1.06-.14-.33-.28-.65-.45-1-.22.54-.5 1.08-.81 1.63zM11.87 3.12A7.27 7.27 0 0 1 14 1.75a1.66 1.66 0 0 1 1.33-.06c.404.318.649.796.67 1.31a7.65 7.65 0 0 1-.14 2.71c0 .13-.07.27-.1.4.29.07.55.15.82.23 0-.15.09-.31.12-.45.5-2.4.14-4.28-.92-4.89a2.42 2.42 0 0 0-2.05 0 8.11 8.11 0 0 0-2.41 1.52c-.17.14-.33.32-.5.48.2.19.4.38.61.6.14-.19.29-.35.44-.48zM6.23 9.61a20.72 20.72 0 0 0-1 2.54c.27.08.53.16.83.22.18-.57.4-1.16.66-1.76-.17-.33-.33-.66-.49-1zM14.88 8.61c.17.33.34.66.49 1 .387-.8.721-1.626 1-2.47-.27-.08-.53-.16-.82-.23-.19.53-.41 1.09-.67 1.7z" fill="#4DC8ED" fill-rule="nonzero"/><path d="M9.63 5.58l-1.11.07c-.21.3-.42.6-.62.92L9 6.46c.19-.3.41-.59.63-.88zM15.53 6.89c.29.07.55.15.82.23.09-.29.15-.55.22-.82-.27-.08-.53-.16-.82-.23-.07.27-.13.54-.22.82zM14.89 10.58c.257.571.484 1.155.68 1.75.29-.07.56-.14.82-.22a20.14 20.14 0 0 0-1-2.52c-.17.33-.33.66-.5.99zM5.71 5.44A7.27 7.27 0 0 1 5.6 2.9a1.66 1.66 0 0 1 .61-1.19 1.76 1.76 0 0 1 1.42.07 7.65 7.65 0 0 1 2.28 1.47l.29.29c.2-.22.4-.4.61-.6-.11-.11-.22-.23-.33-.33C8.64 1 6.84.36 5.78 1a2.42 2.42 0 0 0-1 1.78 8.11 8.11 0 0 0 .11 2.85c0 .22.11.45.17.67.27-.08.53-.16.82-.22-.07-.22-.13-.44-.17-.64zM6.72 8.61c-.25-.59-.47-1.17-.64-1.73l-.83.21a20.6 20.6 0 0 0 1 2.52c.14-.33.3-.66.47-1zM8 11.22c-.31-.53-.59-1.07-.85-1.61-.16.34-.3.67-.44 1 .18.35.35.69.55 1 .2.31.42.68.64 1 .35 0 .7.08 1.08.1-.33-.44-.66-.96-.98-1.49zM13.09 5.66a20.37 20.37 0 0 0-1.67-2.1c-.2.19-.41.38-.61.6.42.453.817.927 1.19 1.42l1.09.08zM13.71 6.58c-.36 0-.72-.09-1.09-.12.33.49.66 1 1 1.53.34.53.6 1.08.86 1.6.16-.33.31-.66.44-1-.18-.35-.36-.69-.56-1-.2-.31-.45-.68-.65-1.01z" fill="#4DC8ED" fill-rule="nonzero"/><path d="M13.71 6.58c-.2-.32-.41-.62-.62-.92L12 5.58c.21.28.43.58.64.88.36.03.71.08 1.07.12zM6.08 6.88c-.09-.28-.15-.55-.22-.82-.29.07-.55.14-.82.22.07.27.12.53.21.81l.83-.21zM10.81 4.15c.2-.22.4-.4.61-.6-.2-.22-.4-.41-.61-.6-.2.2-.41.38-.61.6.2.19.41.38.61.6zM6.72 8.61c-.17.33-.34.66-.49 1 .15.34.32.67.49 1 .14-.33.28-.67.44-1-.16-.33-.3-.66-.44-1zM14.89 10.58c.17-.33.33-.66.48-1-.15-.32-.32-.65-.49-1-.14.32-.28.65-.44 1 .17.35.31.68.45 1z" fill="#4DC8ED" fill-rule="nonzero"/><path d="M9.86 16.06c-1.68 1.47-3.06 1.78-3.64 1.45-.76-.44-.82-2.15-.53-3.65 0-.21.11-.44.16-.66-.29-.06-.55-.15-.82-.22-.06.24-.14.49-.18.73-.43 2.26-.07 4 .95 4.54a1.88 1.88 0 0 0 1 .23 3.51 3.51 0 0 0 1.16-.22 8.06 8.06 0 0 0 2.51-1.56l.43-.4c-.21-.2-.41-.39-.62-.61-.17.12-.28.31-.42.37zM12 13.64a18.23 18.23 0 0 1-1.17 1.45c.2.22.4.42.6.61a20 20 0 0 0 1.68-2.14l-1.11.08z" fill="#A9B4B8" fill-rule="nonzero"/><path d="M8.53 13.58a20.69 20.69 0 0 0 1.7 2.11c.2-.19.4-.38.6-.6-.41-.44-.81-.93-1.21-1.45l-1.09-.06zM15.92 13.65c.43 2.19 0 3.54-.56 3.87-.76.44-2.27-.36-3.43-1.36l-.5-.46c-.19.21-.39.41-.58.6.18.17.35.36.53.51a5.86 5.86 0 0 0 3.47 1.68 1.85 1.85 0 0 0 .94-.23 2.53 2.53 0 0 0 1.07-1.82 8.06 8.06 0 0 0-.1-3c0-.17-.1-.36-.14-.54-.27.08-.53.16-.82.22.03.2.09.37.12.53z" fill="#A9B4B8" fill-rule="nonzero"/><path d="M10.83 15.09c-.2.22-.4.41-.6.6.21.22.41.41.62.61.19-.19.39-.39.58-.6-.2-.19-.43-.39-.6-.61z" fill="#A9B4B8" fill-rule="nonzero"/><path d="M7.91 12.66a18.26 18.26 0 0 1-1.84-.29c-.09.29-.15.55-.22.83.884.186 1.78.313 2.68.38-.21-.3-.41-.58-.62-.92zM13.71 6.58c.64.08 1.25.18 1.83.31.09-.29.15-.55.22-.83a20.59 20.59 0 0 0-2.66-.41c.2.35.4.61.61.93zM4.74 12a7.21 7.21 0 0 1-2.33-1.24 1.77 1.77 0 0 1-.75-1.19c0-.88 1.45-1.78 2.89-2.28l.69-.22c-.09-.28-.14-.54-.21-.81-.26.07-.52.14-.76.22C2.1 7.24.81 8.39.81 9.57a2.53 2.53 0 0 0 1 1.83 8.05 8.05 0 0 0 2.61 1.4c.17.06.38.1.56.16.07-.27.13-.54.21-.82L4.74 12zM19.76 7.82a8.11 8.11 0 0 0-2.52-1.33c-.21-.07-.44-.13-.66-.19-.07.27-.13.54-.22.82.2.06.41.11.6.17a7.27 7.27 0 0 1 2.25 1.18c.386.257.647.663.72 1.12 0 .66-1 1.7-3.19 2.43l-.34.09c.09.29.15.55.22.82l.39-.11c2.33-.77 3.78-2 3.78-3.24a2.42 2.42 0 0 0-1.03-1.76zM8.52 5.66a20.74 20.74 0 0 0-2.65.4c.07.27.13.54.22.82.57-.13 1.18-.23 1.82-.31.19-.31.4-.57.61-.91zM13.11 13.57a20.14 20.14 0 0 0 2.68-.4c-.07-.27-.13-.54-.22-.82a18.22 18.22 0 0 1-1.86.31c-.193.307-.393.61-.6.91zM10.8 12.83c-.63 0-1.23 0-1.81-.06.21.3.42.59.63.88h2.37c.21-.29.42-.57.63-.88-.62.03-1.19.06-1.82.06zM10.8 6.39c.62 0 1.22 0 1.82.07-.21-.31-.42-.6-.64-.88H9.63c-.22.29-.43.58-.64.88.59-.04 1.2-.07 1.81-.07z" fill="#4ABDD8" fill-rule="nonzero"/><path d="M12 13.64l1.11-.08c.2-.293.4-.6.6-.92-.35 0-.71.08-1.08.11-.21.32-.42.6-.63.89zM6.07 12.38c-.3-.06-.56-.14-.83-.22-.09.28-.15.55-.21.82.27.08.53.16.82.22.07-.27.15-.54.22-.82zM15.57 12.34c.09.29.15.55.22.82.29-.07.56-.15.82-.22-.07-.27-.13-.54-.22-.82-.26.07-.53.15-.82.22zM7.91 12.66c.2.31.41.62.62.92l1.1.06c-.21-.28-.43-.57-.63-.88-.38-.02-.73-.06-1.09-.1z" fill="#4ABDD8" fill-rule="nonzero"/></g></svg>